<?xml version="1.0" encoding="UTF-8" standalone="no"?>
<svg viewBox="0 0 155 68" version="1.1" xmlns="http://www.w3.org/2000/svg" xmlns:xlink="http://www.w3.org/1999/xlink">
    <!-- Generator: Sketch 46.1 (44463) - http://www.bohemiancoding.com/sketch -->
    <title>Logo</title>
    <desc>Created with Sketch.</desc>
    <defs></defs>
    <g id="Symbols" stroke="none" stroke-width="1" fill="none" fill-rule="evenodd">
        <g id="Logo">
            <g id="pega_logo_horizontal_positive_rgb">
                <path d="M136.36,17.098 L136.173,17.009 C136.154,16.998 133.96,16.01 132.245,17.815 L132.026,18.046 L135.539,19.768 L136.36,17.098 Z M152.441,36.389 C152.441,36.389 150.91,39.13 150.224,40.143 C149.535,41.164 147.38,41.798 145.517,40.908 C144.665,40.503 136.694,35.854 133.644,36.12 C118.205,37.466 113.999,31.105 113.503,30.527 C113.005,29.949 112.077,30.218 112.74,31.355 C116.127,37.163 126.15,39.856 126.15,39.856 C128.771,46.172 129.085,50.597 129.085,50.597 C126.489,48.574 123.687,46.869 120.714,45.453 C112.768,40.121 100.329,33.518 83.207,29.379 C84.191,15.797 91.044,-3.837 123.092,0.806 C123.092,0.806 129.522,1.86 133.809,4.824 C133.809,4.824 132.779,5.904 131.425,7.256 C130.071,8.605 131.569,9.471 131.569,9.471 L138.338,14.792 C138.417,17.607 138.533,18.396 140.651,20.944 C142.769,23.487 151.004,32.112 152.081,33.266 C153.329,34.6 152.441,36.389 152.441,36.389 Z M78.633,9.915 C76.938,16.897 77.068,23.049 77.939,28.221 C76.33,27.901 74.697,27.594 73.014,27.32 C37.94,21.612 27.361,38.899 31.455,52.916 C19.86,57.274 8.963,62.263 0.214,67.162 C13.98,34.146 43.896,5.087 69.145,1.268 C77.389,0.181 79.708,5.529 78.633,9.915 L78.633,9.915 Z" id="Fill-1" fill="#000000"></path>
                <path d="M83.492,40.09 C97.157,39.01 110.054,40.381 120.713,45.453 C112.768,40.121 100.329,33.518 83.206,29.379 C82.864,34.111 83.23,38.107 83.492,40.09 Z M81.52,40.262 C66.209,41.723 48.105,46.663 31.455,52.916 C27.361,38.899 37.941,21.612 73.014,27.32 C74.697,27.594 76.33,27.901 77.938,28.221 C78.77,33.166 80.276,37.228 81.52,40.262 L81.52,40.262 Z" id="Fill-2" fill="#A6A6A6"></path>
            </g>
        </g>
    </g>
</svg>
